<mxfile host="app.diagrams.net" agent="Mozilla/5.0 (Windows NT 10.0; Win64; x64) AppleWebKit/537.36 (KHTML, like Gecko) Chrome/128.0.0.0 Safari/537.36" version="24.7.14">
  <diagram name="Page-1" id="J42WkS2B89UVK2kPN1kL">
    <mxGraphModel dx="2173" dy="1843" grid="1" gridSize="10" guides="1" tooltips="1" connect="1" arrows="1" fold="1" page="1" pageScale="1" pageWidth="850" pageHeight="1100" math="0" shadow="0">
      <root>
        <mxCell id="0" />
        <mxCell id="1" parent="0" />
        <mxCell id="Tg3254VQat_Gvoc-51zZ-1" value="x" style="rounded=0;whiteSpace=wrap;html=1;" vertex="1" parent="1">
          <mxGeometry x="-150" y="-200" width="1730" height="1140" as="geometry" />
        </mxCell>
        <mxCell id="Tg3254VQat_Gvoc-51zZ-2" value="zaperon-user-backend&lt;br&gt;port:5000" style="rounded=0;whiteSpace=wrap;html=1;" vertex="1" parent="1">
          <mxGeometry x="140" y="100" width="120" height="60" as="geometry" />
        </mxCell>
        <mxCell id="Tg3254VQat_Gvoc-51zZ-3" value="zaperon-user-mutualauth&lt;br&gt;port:5002" style="rounded=0;whiteSpace=wrap;html=1;" vertex="1" parent="1">
          <mxGeometry x="140" y="350" width="120" height="60" as="geometry" />
        </mxCell>
        <mxCell id="Tg3254VQat_Gvoc-51zZ-4" value="zaperon-user-oauth&lt;br&gt;port:5003" style="rounded=0;whiteSpace=wrap;html=1;" vertex="1" parent="1">
          <mxGeometry x="140" y="590" width="120" height="60" as="geometry" />
        </mxCell>
        <mxCell id="Tg3254VQat_Gvoc-51zZ-5" value="" style="rounded=0;whiteSpace=wrap;html=1;" vertex="1" parent="1">
          <mxGeometry x="390" y="740" width="320" height="120" as="geometry" />
        </mxCell>
        <mxCell id="Tg3254VQat_Gvoc-51zZ-13" style="edgeStyle=orthogonalEdgeStyle;rounded=0;orthogonalLoop=1;jettySize=auto;html=1;" edge="1" parent="1" source="Tg3254VQat_Gvoc-51zZ-7" target="Tg3254VQat_Gvoc-51zZ-3">
          <mxGeometry relative="1" as="geometry" />
        </mxCell>
        <mxCell id="Tg3254VQat_Gvoc-51zZ-14" style="edgeStyle=orthogonalEdgeStyle;rounded=0;orthogonalLoop=1;jettySize=auto;html=1;entryX=0;entryY=0.75;entryDx=0;entryDy=0;" edge="1" parent="1" source="Tg3254VQat_Gvoc-51zZ-7" target="Tg3254VQat_Gvoc-51zZ-4">
          <mxGeometry relative="1" as="geometry" />
        </mxCell>
        <mxCell id="Tg3254VQat_Gvoc-51zZ-15" style="edgeStyle=orthogonalEdgeStyle;rounded=0;orthogonalLoop=1;jettySize=auto;html=1;entryX=0;entryY=0.75;entryDx=0;entryDy=0;" edge="1" parent="1" source="Tg3254VQat_Gvoc-51zZ-7" target="Tg3254VQat_Gvoc-51zZ-2">
          <mxGeometry relative="1" as="geometry" />
        </mxCell>
        <mxCell id="Tg3254VQat_Gvoc-51zZ-7" value="zaperon-user&lt;br&gt;port : 8000" style="rounded=0;whiteSpace=wrap;html=1;" vertex="1" parent="1">
          <mxGeometry x="-140" y="350" width="120" height="60" as="geometry" />
        </mxCell>
        <mxCell id="Tg3254VQat_Gvoc-51zZ-9" value="Amazon EC2" style="sketch=0;outlineConnect=0;fontColor=#232F3E;gradientColor=none;strokeColor=#ffffff;fillColor=#232F3E;dashed=0;verticalLabelPosition=middle;verticalAlign=bottom;align=center;html=1;whiteSpace=wrap;fontSize=10;fontStyle=1;spacing=3;shape=mxgraph.aws4.productIcon;prIcon=mxgraph.aws4.ec2;" vertex="1" parent="1">
          <mxGeometry x="400" y="750" width="80" height="100" as="geometry" />
        </mxCell>
        <mxCell id="Tg3254VQat_Gvoc-51zZ-10" value="Amazon EC2" style="sketch=0;outlineConnect=0;fontColor=#232F3E;gradientColor=none;strokeColor=#ffffff;fillColor=#232F3E;dashed=0;verticalLabelPosition=middle;verticalAlign=bottom;align=center;html=1;whiteSpace=wrap;fontSize=10;fontStyle=1;spacing=3;shape=mxgraph.aws4.productIcon;prIcon=mxgraph.aws4.ec2;" vertex="1" parent="1">
          <mxGeometry x="510" y="750" width="80" height="100" as="geometry" />
        </mxCell>
        <mxCell id="Tg3254VQat_Gvoc-51zZ-11" value="Amazon EC2" style="sketch=0;outlineConnect=0;fontColor=#232F3E;gradientColor=none;strokeColor=#ffffff;fillColor=#232F3E;dashed=0;verticalLabelPosition=middle;verticalAlign=bottom;align=center;html=1;whiteSpace=wrap;fontSize=10;fontStyle=1;spacing=3;shape=mxgraph.aws4.productIcon;prIcon=mxgraph.aws4.ec2;" vertex="1" parent="1">
          <mxGeometry x="610" y="750" width="80" height="100" as="geometry" />
        </mxCell>
        <mxCell id="Tg3254VQat_Gvoc-51zZ-12" value="&lt;b&gt;&lt;font style=&quot;font-size: 13px;&quot;&gt;Mongo Cluster&lt;/font&gt;&lt;/b&gt;" style="text;html=1;align=center;verticalAlign=middle;whiteSpace=wrap;rounded=0;" vertex="1" parent="1">
          <mxGeometry x="480" y="860" width="160" height="30" as="geometry" />
        </mxCell>
        <mxCell id="Tg3254VQat_Gvoc-51zZ-16" value="Elasticsearch" style="rounded=0;whiteSpace=wrap;html=1;" vertex="1" parent="1">
          <mxGeometry x="410" y="-100" width="150" height="90" as="geometry" />
        </mxCell>
        <mxCell id="Tg3254VQat_Gvoc-51zZ-17" value="" style="endArrow=classic;html=1;rounded=0;entryX=0.092;entryY=0.035;entryDx=0;entryDy=0;entryPerimeter=0;fillColor=#d5e8d4;strokeColor=#82b366;dashed=1;" edge="1" parent="1" target="Tg3254VQat_Gvoc-51zZ-5">
          <mxGeometry width="50" height="50" relative="1" as="geometry">
            <mxPoint x="260" y="130" as="sourcePoint" />
            <mxPoint x="310" y="80" as="targetPoint" />
            <Array as="points">
              <mxPoint x="419" y="130" />
            </Array>
          </mxGeometry>
        </mxCell>
        <mxCell id="Tg3254VQat_Gvoc-51zZ-20" value="" style="endArrow=classic;html=1;rounded=0;entryX=0;entryY=0.5;entryDx=0;entryDy=0;dashed=1;fillColor=#ffe6cc;strokeColor=#d79b00;" edge="1" parent="1" target="Tg3254VQat_Gvoc-51zZ-16">
          <mxGeometry width="50" height="50" relative="1" as="geometry">
            <mxPoint x="190" y="100" as="sourcePoint" />
            <mxPoint x="240" y="50" as="targetPoint" />
            <Array as="points">
              <mxPoint x="190" y="-55" />
            </Array>
          </mxGeometry>
        </mxCell>
        <mxCell id="Tg3254VQat_Gvoc-51zZ-21" value="" style="outlineConnect=0;dashed=0;verticalLabelPosition=bottom;verticalAlign=top;align=center;html=1;shape=mxgraph.aws3.mysql_db_instance;fillColor=#2E73B8;gradientColor=none;" vertex="1" parent="1">
          <mxGeometry x="740" y="-103.5" width="130" height="97" as="geometry" />
        </mxCell>
        <mxCell id="Tg3254VQat_Gvoc-51zZ-22" value="" style="endArrow=classic;html=1;rounded=0;entryX=0.5;entryY=0;entryDx=0;entryDy=0;entryPerimeter=0;fillColor=#dae8fc;strokeColor=#6c8ebf;dashed=1;exitX=0.25;exitY=0;exitDx=0;exitDy=0;" edge="1" parent="1" source="Tg3254VQat_Gvoc-51zZ-2" target="Tg3254VQat_Gvoc-51zZ-21">
          <mxGeometry width="50" height="50" relative="1" as="geometry">
            <mxPoint x="150" y="100" as="sourcePoint" />
            <mxPoint x="200" y="50" as="targetPoint" />
            <Array as="points">
              <mxPoint x="170" y="-150" />
              <mxPoint x="805" y="-150" />
            </Array>
          </mxGeometry>
        </mxCell>
        <mxCell id="Tg3254VQat_Gvoc-51zZ-23" value="" style="sketch=0;points=[[0,0,0],[0.25,0,0],[0.5,0,0],[0.75,0,0],[1,0,0],[0,1,0],[0.25,1,0],[0.5,1,0],[0.75,1,0],[1,1,0],[0,0.25,0],[0,0.5,0],[0,0.75,0],[1,0.25,0],[1,0.5,0],[1,0.75,0]];outlineConnect=0;fontColor=#232F3E;fillColor=#8C4FFF;strokeColor=#ffffff;dashed=0;verticalLabelPosition=bottom;verticalAlign=top;align=center;html=1;fontSize=12;fontStyle=0;aspect=fixed;shape=mxgraph.aws4.resourceIcon;resIcon=mxgraph.aws4.managed_streaming_for_kafka;" vertex="1" parent="1">
          <mxGeometry x="1020" y="-111" width="101" height="101" as="geometry" />
        </mxCell>
        <mxCell id="Tg3254VQat_Gvoc-51zZ-24" value="" style="endArrow=classic;html=1;rounded=0;entryX=0.5;entryY=0;entryDx=0;entryDy=0;entryPerimeter=0;dashed=1;fillColor=#e1d5e7;strokeColor=#9673a6;" edge="1" parent="1" target="Tg3254VQat_Gvoc-51zZ-23">
          <mxGeometry width="50" height="50" relative="1" as="geometry">
            <mxPoint x="150" y="100" as="sourcePoint" />
            <mxPoint x="200" y="50" as="targetPoint" />
            <Array as="points">
              <mxPoint x="150" y="-180" />
              <mxPoint x="1071" y="-180" />
            </Array>
          </mxGeometry>
        </mxCell>
        <mxCell id="Tg3254VQat_Gvoc-51zZ-25" value="zaperon-scim-server&lt;br&gt;port: 9096" style="rounded=0;whiteSpace=wrap;html=1;" vertex="1" parent="1">
          <mxGeometry x="650" y="80" width="120" height="80" as="geometry" />
        </mxCell>
        <mxCell id="Tg3254VQat_Gvoc-51zZ-28" value="" style="endArrow=classic;html=1;rounded=0;entryX=0;entryY=0.5;entryDx=0;entryDy=0;" edge="1" parent="1" target="Tg3254VQat_Gvoc-51zZ-25">
          <mxGeometry width="50" height="50" relative="1" as="geometry">
            <mxPoint x="260" y="120" as="sourcePoint" />
            <mxPoint x="310" y="70" as="targetPoint" />
          </mxGeometry>
        </mxCell>
        <mxCell id="Tg3254VQat_Gvoc-51zZ-29" value="" style="endArrow=classic;html=1;rounded=0;entryX=0.25;entryY=0;entryDx=0;entryDy=0;dashed=1;fillColor=#d5e8d4;strokeColor=#82b366;" edge="1" parent="1" target="Tg3254VQat_Gvoc-51zZ-5">
          <mxGeometry width="50" height="50" relative="1" as="geometry">
            <mxPoint x="260" y="380" as="sourcePoint" />
            <mxPoint x="310" y="330" as="targetPoint" />
            <Array as="points">
              <mxPoint x="470" y="380" />
            </Array>
          </mxGeometry>
        </mxCell>
        <mxCell id="Tg3254VQat_Gvoc-51zZ-30" value="" style="endArrow=classic;html=1;rounded=0;entryX=0.417;entryY=1.062;entryDx=0;entryDy=0;entryPerimeter=0;dashed=1;fillColor=#ffe6cc;strokeColor=#d79b00;" edge="1" parent="1" target="Tg3254VQat_Gvoc-51zZ-16">
          <mxGeometry width="50" height="50" relative="1" as="geometry">
            <mxPoint x="260" y="370" as="sourcePoint" />
            <mxPoint x="310" y="320" as="targetPoint" />
            <Array as="points">
              <mxPoint x="470" y="370" />
            </Array>
          </mxGeometry>
        </mxCell>
        <mxCell id="Tg3254VQat_Gvoc-51zZ-31" value="" style="endArrow=classic;html=1;rounded=0;entryX=-0.011;entryY=0.617;entryDx=0;entryDy=0;entryPerimeter=0;dashed=1;fillColor=#d5e8d4;strokeColor=#82b366;" edge="1" parent="1" target="Tg3254VQat_Gvoc-51zZ-5">
          <mxGeometry width="50" height="50" relative="1" as="geometry">
            <mxPoint x="200" y="650" as="sourcePoint" />
            <mxPoint x="250" y="600" as="targetPoint" />
            <Array as="points">
              <mxPoint x="200" y="814" />
            </Array>
          </mxGeometry>
        </mxCell>
        <mxCell id="Tg3254VQat_Gvoc-51zZ-32" value="" style="endArrow=classic;html=1;rounded=0;entryX=0.617;entryY=0.979;entryDx=0;entryDy=0;entryPerimeter=0;dashed=1;fillColor=#ffe6cc;strokeColor=#d79b00;" edge="1" parent="1" target="Tg3254VQat_Gvoc-51zZ-16">
          <mxGeometry width="50" height="50" relative="1" as="geometry">
            <mxPoint x="260" y="620" as="sourcePoint" />
            <mxPoint x="310" y="570" as="targetPoint" />
            <Array as="points">
              <mxPoint x="500" y="620" />
            </Array>
          </mxGeometry>
        </mxCell>
        <mxCell id="Tg3254VQat_Gvoc-51zZ-33" value="" style="endArrow=classic;html=1;rounded=0;entryX=1;entryY=0.75;entryDx=0;entryDy=0;" edge="1" parent="1" target="Tg3254VQat_Gvoc-51zZ-2">
          <mxGeometry width="50" height="50" relative="1" as="geometry">
            <mxPoint x="260" y="610" as="sourcePoint" />
            <mxPoint x="310" y="560" as="targetPoint" />
            <Array as="points">
              <mxPoint x="320" y="610" />
              <mxPoint x="320" y="145" />
            </Array>
          </mxGeometry>
        </mxCell>
        <mxCell id="Tg3254VQat_Gvoc-51zZ-34" value="" style="endArrow=classic;html=1;rounded=0;dashed=1;fillColor=#d5e8d4;strokeColor=#82b366;" edge="1" parent="1">
          <mxGeometry width="50" height="50" relative="1" as="geometry">
            <mxPoint x="700" y="160" as="sourcePoint" />
            <mxPoint x="700" y="740" as="targetPoint" />
          </mxGeometry>
        </mxCell>
        <mxCell id="Tg3254VQat_Gvoc-51zZ-35" value="zookeeper" style="rounded=0;whiteSpace=wrap;html=1;" vertex="1" parent="1">
          <mxGeometry x="1240" y="-160" width="120" height="60" as="geometry" />
        </mxCell>
        <mxCell id="Tg3254VQat_Gvoc-51zZ-36" style="edgeStyle=orthogonalEdgeStyle;rounded=0;orthogonalLoop=1;jettySize=auto;html=1;entryX=1;entryY=0.5;entryDx=0;entryDy=0;entryPerimeter=0;" edge="1" parent="1" source="Tg3254VQat_Gvoc-51zZ-35" target="Tg3254VQat_Gvoc-51zZ-23">
          <mxGeometry relative="1" as="geometry" />
        </mxCell>
        <mxCell id="Tg3254VQat_Gvoc-51zZ-37" value="zaperon-client-backend&lt;br&gt;port:8451" style="rounded=0;whiteSpace=wrap;html=1;" vertex="1" parent="1">
          <mxGeometry x="980" y="260" width="160" height="100" as="geometry" />
        </mxCell>
        <mxCell id="Tg3254VQat_Gvoc-51zZ-39" value="" style="endArrow=classic;html=1;rounded=0;entryX=0.987;entryY=0.401;entryDx=0;entryDy=0;entryPerimeter=0;dashed=1;fillColor=#d5e8d4;strokeColor=#82b366;" edge="1" parent="1" target="Tg3254VQat_Gvoc-51zZ-5">
          <mxGeometry width="50" height="50" relative="1" as="geometry">
            <mxPoint x="1080" y="360" as="sourcePoint" />
            <mxPoint x="1130" y="310" as="targetPoint" />
            <Array as="points">
              <mxPoint x="1080" y="790" />
            </Array>
          </mxGeometry>
        </mxCell>
        <mxCell id="Tg3254VQat_Gvoc-51zZ-40" value="" style="endArrow=classic;html=1;rounded=0;entryX=0.5;entryY=0;entryDx=0;entryDy=0;fillColor=#ffe6cc;strokeColor=#d79b00;dashed=1;" edge="1" parent="1" target="Tg3254VQat_Gvoc-51zZ-16">
          <mxGeometry width="50" height="50" relative="1" as="geometry">
            <mxPoint x="1010" y="260" as="sourcePoint" />
            <mxPoint x="1080" y="210" as="targetPoint" />
            <Array as="points">
              <mxPoint x="1010" y="-130" />
              <mxPoint x="485" y="-130" />
            </Array>
          </mxGeometry>
        </mxCell>
        <mxCell id="Tg3254VQat_Gvoc-51zZ-42" value="zaperon-client-backend&lt;br&gt;port:8451" style="rounded=0;whiteSpace=wrap;html=1;" vertex="1" parent="1">
          <mxGeometry x="1260" y="250" width="160" height="100" as="geometry" />
        </mxCell>
        <mxCell id="Tg3254VQat_Gvoc-51zZ-43" value="" style="endArrow=classic;html=1;rounded=0;dashed=1;fillColor=#e1d5e7;strokeColor=#9673a6;" edge="1" parent="1">
          <mxGeometry width="50" height="50" relative="1" as="geometry">
            <mxPoint x="1060" y="260" as="sourcePoint" />
            <mxPoint x="1058" y="-10" as="targetPoint" />
          </mxGeometry>
        </mxCell>
        <mxCell id="Tg3254VQat_Gvoc-51zZ-44" value="" style="endArrow=classic;html=1;rounded=0;entryX=0.5;entryY=0;entryDx=0;entryDy=0;dashed=1;fillColor=#e1d5e7;strokeColor=#9673a6;" edge="1" parent="1" target="Tg3254VQat_Gvoc-51zZ-42">
          <mxGeometry width="50" height="50" relative="1" as="geometry">
            <mxPoint x="1120" y="-40" as="sourcePoint" />
            <mxPoint x="1170" y="-90" as="targetPoint" />
            <Array as="points">
              <mxPoint x="1340" y="-40" />
            </Array>
          </mxGeometry>
        </mxCell>
      </root>
    </mxGraphModel>
  </diagram>
</mxfile>
